<svg id="Calque_1" data-name="Calque 1" xmlns="http://www.w3.org/2000/svg" xmlns:xlink="http://www.w3.org/1999/xlink" viewBox="0 0 470.4 431.3"><defs><style>.cls-1{opacity:0.97;}.cls-2{fill:url(#Dégradé_sans_nom_196);}.cls-3{fill:url(#Dégradé_sans_nom_196-2);}</style><linearGradient id="Dégradé_sans_nom_196" x1="472.39" y1="289.12" x2="799.09" y2="100.5" gradientTransform="matrix(-1, 0, 0, 1, 789.66, 0)" gradientUnits="userSpaceOnUse"><stop offset="0" stop-color="#8df0e5"/><stop offset="0.14" stop-color="#8df0e5" stop-opacity="0.99"/><stop offset="0.27" stop-color="#8df0e5" stop-opacity="0.94"/><stop offset="0.34" stop-color="#8df0e5" stop-opacity="0.9"/><stop offset="0.5" stop-color="#8df0e5" stop-opacity="0.76"/><stop offset="0.71" stop-color="#8df0e5" stop-opacity="0.6"/><stop offset="0.74" stop-color="#8df0e5" stop-opacity="0.52"/><stop offset="0.87" stop-color="#8df0e5" stop-opacity="0.24"/><stop offset="0.95" stop-color="#8df0e5" stop-opacity="0.07"/><stop offset="1" stop-color="#8df0e5" stop-opacity="0"/></linearGradient><linearGradient id="Dégradé_sans_nom_196-2" x1="449.52" y1="289.13" x2="776.25" y2="100.49" gradientTransform="translate(-296.42)" xlink:href="#Dégradé_sans_nom_196"/></defs><title>heart-with-radient</title><g class="cls-1"><path class="cls-2" d="M235.19,431.29c0-1.88,0-4.72,0-5.89V100.89A48.37,48.37,0,0,1,233,96.45a191.74,191.74,0,0,0-29.41-52c-15.95-19.9-35.43-34.62-60.49-41.07C119.68-2.64,96.84-.31,74.37,8,40.22,20.6,17.43,44.28,6.37,78.81c-9.56,29.8-7.36,59.92,0,89.8,7.87,32,24.47,59.67,43.82,85.8,37,50,81.88,92.4,129.08,132.51C196.8,401.81,235.19,431.72,235.19,431.29Z" transform="translate(0 0)"/></g><g class="cls-1"><path class="cls-3" d="M235.18,431.29c0-1.88-.05-1.36,0-2.4s0-2.32,0-3.49V100.89a48.54,48.54,0,0,0,2.22-4.45,191.83,191.83,0,0,1,29.41-52c16-19.9,35.43-34.63,60.5-41.08C350.72-2.65,373.56-.31,396,8c34.15,12.61,56.94,36.3,68,70.83,9.56,29.8,7.36,59.92,0,89.8-7.87,32-24.47,59.66-43.82,85.8-37,50-81.88,92.4-129.08,132.51C273.61,401.81,235.18,431.72,235.18,431.29Z" transform="translate(0 0)"/></g></svg>