<svg id="Calque_1" data-name="Calque 1" xmlns="http://www.w3.org/2000/svg" viewBox="0 0 345.87 345.88">
  <defs>
    <style>.cls-1{fill:#179bef;}.cls-2{fill:#fff;}</style>
  </defs>
  <title>certified</title>
  <path class="cls-1" d="M103.85,52.3a67.58,67.58,0,0,1,20.8,3.15c1.37.44,2,.24,2.7-1.09,7.74-14.31,18.63-25.44,34-31.2,22.93-8.56,43.58-3.87,61.85,12A64.55,64.55,0,0,1,237.85,54c.82,1.55,1.42,1.92,3.22,1.4,18.41-5.28,36.3-4.32,52.92,5.8s25.5,25.23,27.8,44.36A67.16,67.16,0,0,1,319,134c-.39,1.24-.15,1.76,1,2.39,15.41,8.45,27.1,20.38,32.46,37.36,7.13,22.61,1.64,42.58-14.22,59.87a65.44,65.44,0,0,1-18,13.66c-1.41.75-1.57,1.41-1.14,2.86,5.33,18.33,4.4,36.13-5.52,52.77-9.48,15.91-23.81,24.89-42,27.77a67.93,67.93,0,0,1-30.83-2.36c-1.46-.44-2-.07-2.68,1.17-8.61,15.78-20.92,27.5-38.37,32.64-22.41,6.61-42.09.9-59-14.84a64.92,64.92,0,0,1-13.38-17.74c-.82-1.56-1.57-1.54-3-1.12-15.91,4.57-31.68,4.47-46.86-2.57-19.19-8.9-30.13-24.24-33.51-45A67.41,67.41,0,0,1,46.34,250c.45-1.48.07-2-1.16-2.71-15.33-8.44-27-20.32-32.38-37.2C5.53,187.29,11.23,167.26,27.33,150a66.21,66.21,0,0,1,17.91-13.48c1.32-.69,1.49-1.35,1.08-2.75-5.16-17.58-4.66-34.83,4.36-51.09C60.5,64.94,76,55.35,96,52.73A64.92,64.92,0,0,1,103.85,52.3Z" transform="translate(-9.69 -18.94)"/><path class="cls-2" d="M262.66,148.41l-1.31,1.47L212,203.8q-26.21,28.62-52.4,57.28c-1.28,1.4-1.86,1.44-3.23.08q-29.88-30-59.93-59.94c-1.28-1.28-1.23-1.92,0-3.16q10.4-10.27,20.61-20.73c1.27-1.3,1.89-1.49,3.29-.08,11.66,11.8,23.45,23.49,35.13,35.28,1.14,1.14,1.66,1,2.68-.11q39.16-42.75,78.37-85.48c1-1.06,1.48-1.18,2.59-.14,7.34,6.9,14.76,13.72,22.16,20.56A16.31,16.31,0,0,0,262.66,148.41Z" transform="translate(-9.69 -18.94)"/>
</svg>
