<svg id="Calque_1" data-name="Calque 1" xmlns="http://www.w3.org/2000/svg" viewBox="0 0 1192.11 228.38"><defs><style>.cls-1{fill:#fefefe;}</style></defs><title>navbar-top</title><path class="cls-1" d="M636.71,190c21.67,0,39-.61,56.32.18,14.64.67,29.28.21,43.88.94,16.09.82,32.21,1,48.26,2,19,1.27,38,2,57,3.57,11.21.93,22.49,1.6,33.73,2.36,12.87.87,25.69,2.49,38.53,3.79q15.06,1.53,30.12,3.1c20.41,2.13,40.71,5,61,7.87a1027.51,1027.51,0,0,1,121.75,24.3c25.87,6.91,51.39,15.06,75.22,27.65,10.52,5.56,20.44,12.09,27.86,21.46,12.3,15.53,6.29,30.07-7,41.38-14.89,12.67-32.58,20.44-50.69,27.27-35.06,13.24-71.49,21.46-108.1,28.82-21.89,4.4-44,7.89-66.09,11-17,2.4-34.06,4.88-51.22,6.38-17.79,1.54-35.5,4-53.28,5.76-10.22,1-20.51,1.35-30.75,2.13-16.34,1.24-32.68,2.65-49,3.87-6.45.48-13,.71-19.38.85-12.3.26-24.61.86-36.86,1.47C723,418,687.89,418,652.79,418c-28.92,0-57.85.47-86.75-.19-19.25-.43-38.5-1.27-57.76-1.91-18.39-.62-36.79-1.54-55.13-3-19.14-1.54-38.32-2.58-57.41-4.75-15.95-1.81-32-2.53-48-4.22-15-1.58-29.83-4-44.78-5.69-18.42-2.11-36.69-5.18-55-8.13-20.78-3.35-41.37-7.54-61.91-12.07a586.91,586.91,0,0,1-65.73-18.13c-21.24-7.36-42.15-15.58-60-29.76C51.71,323.32,45,315.25,45,303.5c0-7.25,3.75-13,8.23-18.23,7.37-8.63,16.8-14.57,26.73-19.73,29.87-15.53,62-24.45,94.51-32.45,28.48-7,57.31-12.36,86.26-16.93q36.51-5.76,73.25-10c18.08-2.06,36.2-3.89,54.36-5.36,17.33-1.41,34.66-2.77,52-4,16.37-1.13,32.74-2.21,49.14-3,16.58-.8,33.19-1.18,49.75-2.11,13-.72,26,.24,38.88-.88C599.13,189.05,620.09,190.82,636.71,190Z" transform="translate(-45.03 -189.79)"/></svg>